<?xml version="1.0" encoding="utf-8"?>
<!-- Generator: Adobe Illustrator 22.0.0, SVG Export Plug-In . SVG Version: 6.00 Build 0)  -->
<svg version="1.1" id="Layer_1" xmlns="http://www.w3.org/2000/svg" xmlns:xlink="http://www.w3.org/1999/xlink" x="0px" y="0px"
	 viewBox="0 0 129.6 27.6" style="enable-background:new 0 0 129.6 27.6;" xml:space="preserve">
<style type="text/css">
	.st0{fill:#005FA9;}
</style>
<title>Asset 3</title>
<g id="Layer_2_1_">
	<g id="Layer_1-2">
		<path class="st0" d="M46.8,23.3l6.3-10.1h6.7L68.1,0H17.2L0,27.6h50.9l2.6-4.2H46.8z M26.3,22c-0.7,1.1-3.7,1.5-10.3,1.5
			c-2.5,0.1-4.9-0.1-7.3-0.6c-0.7-0.2-0.9-0.7-0.5-1.2l0.1-0.2l5.2-8.4h6.4l-5.4,8.6l-0.1,0.1c-0.3,0.5,0.3,0.7,2.3,0.7
			s2.8-0.2,3.2-0.8l0.1-0.1l5.4-8.6h6.6l-5.4,8.7L26.3,22L26.3,22z M38,23.3l-2.1-7.8l-4.7,7.8H27l6.3-10.1h8.4l1.8,7.2l4.3-7.2h3.9
			l-6.3,10.1H38z"/>
		<polygon class="st0" points="73.3,13.2 72.8,14.2 66,14.2 63.9,17.5 70.6,17.5 70,18.5 63.3,18.5 60.2,23.5 53.2,23.5 59.7,13.2 
			73.3,13.2 		"/>
		<path class="st0" d="M88.6,13.2H89c2.9,0,4.1,0.4,3.6,1.2v0.1l-1.3,2.2v0.1c-0.5,0.8-2.1,1.1-6.9,1.4l0.5,0l1.6,0.1
			c2.6,0.2,3.4,0.6,2.8,1.5V20l-1,2.1l-0.1,0.1c-0.4,0.6-0.3,0.9-0.1,1.1h-6.9c-0.6-0.1-0.6-0.2-0.3-0.7l0.1-0.1l1.6-2.6l0.1-0.1
			c0.4-0.8,0-1-2.2-1h-2.6l-3,4.7h-6.8l6.3-10.1L88.6,13.2z M80.6,17.7H81c2.1,0,3-0.2,3.3-0.7l0.1-0.1l1.2-1.8l0.1-0.1
			c0.3-0.4-0.5-0.6-2-0.6h-3l-2.2,3.5H80.6z"/>
		<path class="st0" d="M107.7,13.2l-0.2,10.1h-6.7l0.3-2.7h-5.8l-3.1,2.7h-5.2l12.8-10.1H107.7z M96.4,19.5h4.6l0.4-4.3L96.4,19.5
			L96.4,19.5z"/>
		<polygon class="st0" points="117.6,13.2 119.2,16.7 125.4,13.2 129.6,13.2 120.6,18.1 124.3,23.3 116.5,23.3 114.5,19.1 
			107.2,23.3 103,23.3 113.1,17.6 109.9,13.2 117.6,13.2 		"/>
	</g>
</g>
</svg>
